<svg version="1.2" baseProfile="tiny-ps" xmlns="http://www.w3.org/2000/svg" viewBox="0 0 174 174" width="174" height="174">
	<title>logo-svg</title>
	<style>
		tspan { white-space:pre }
		.shp0 { fill: #5d80fc } 
	</style>
	<path id="Layer" class="shp0" d="M0 0L6 0L6 6L0 6L0 0ZM6 0L12 0L12 6L6 6L6 0ZM12 0L18 0L18 6L12 6L12 0ZM18 0L24 0L24 6L18 6L18 0ZM24 0L30 0L30 6L24 6L24 0ZM30 0L36 0L36 6L30 6L30 0ZM36 0L42 0L42 6L36 6L36 0ZM48 0L54 0L54 6L48 6L48 0ZM54 0L60 0L60 6L54 6L54 0ZM84 0L90 0L90 6L84 6L84 0ZM96 0L102 0L102 6L96 6L96 0ZM102 0L108 0L108 6L102 6L102 0ZM108 0L114 0L114 6L108 6L108 0ZM114 0L120 0L120 6L114 6L114 0ZM120 0L126 0L126 6L120 6L120 0ZM132 0L138 0L138 6L132 6L132 0ZM138 0L144 0L144 6L138 6L138 0ZM144 0L150 0L150 6L144 6L144 0ZM150 0L156 0L156 6L150 6L150 0ZM156 0L162 0L162 6L156 6L156 0ZM162 0L168 0L168 6L162 6L162 0ZM168 0L174 0L174 6L168 6L168 0ZM0 6L6 6L6 12L0 12L0 6ZM36 6L42 6L42 12L36 12L36 6ZM78 6L84 6L84 12L78 12L78 6ZM102 6L108 6L108 12L102 12L102 6ZM108 6L114 6L114 12L108 12L108 6ZM132 6L138 6L138 12L132 12L132 6ZM168 6L174 6L174 12L168 12L168 6ZM0 12L6 12L6 18L0 18L0 12ZM12 12L18 12L18 18L12 18L12 12ZM18 12L24 12L24 18L18 18L18 12ZM24 12L30 12L30 18L24 18L24 12ZM36 12L42 12L42 18L36 18L36 12ZM48 12L54 12L54 18L48 18L48 12ZM66 12L72 12L72 18L66 18L66 12ZM72 12L78 12L78 18L72 18L72 12ZM78 12L84 12L84 18L78 18L78 12ZM84 12L90 12L90 18L84 18L84 12ZM108 12L114 12L114 18L108 18L108 12ZM120 12L126 12L126 18L120 18L120 12ZM132 12L138 12L138 18L132 18L132 12ZM144 12L150 12L150 18L144 18L144 12ZM150 12L156 12L156 18L150 18L150 12ZM156 12L162 12L162 18L156 18L156 12ZM168 12L174 12L174 18L168 18L168 12ZM0 18L6 18L6 24L0 24L0 18ZM12 18L18 18L18 24L12 24L12 18ZM18 18L24 18L24 24L18 24L18 18ZM24 18L30 18L30 24L24 24L24 18ZM36 18L42 18L42 24L36 24L36 18ZM48 18L54 18L54 24L48 24L48 18ZM54 18L60 18L60 24L54 24L54 18ZM66 18L72 18L72 24L66 24L66 18ZM78 18L84 18L84 24L78 24L78 18ZM90 18L96 18L96 24L90 24L90 18ZM96 18L102 18L102 24L96 24L96 18ZM102 18L108 18L108 24L102 24L102 18ZM108 18L114 18L114 24L108 24L108 18ZM114 18L120 18L120 24L114 24L114 18ZM132 18L138 18L138 24L132 24L132 18ZM144 18L150 18L150 24L144 24L144 18ZM150 18L156 18L156 24L150 24L150 18ZM156 18L162 18L162 24L156 24L156 18ZM168 18L174 18L174 24L168 24L168 18ZM0 24L6 24L6 30L0 30L0 24ZM12 24L18 24L18 30L12 30L12 24ZM18 24L24 24L24 30L18 30L18 24ZM24 24L30 24L30 30L24 30L24 24ZM36 24L42 24L42 30L36 30L36 24ZM48 24L54 24L54 30L48 30L48 24ZM54 24L60 24L60 30L54 30L54 24ZM60 24L66 24L66 30L60 30L60 24ZM66 24L72 24L72 30L66 30L66 24ZM78 24L84 24L84 30L78 30L78 24ZM90 24L96 24L96 30L90 30L90 24ZM114 24L120 24L120 30L114 30L114 24ZM132 24L138 24L138 30L132 30L132 24ZM144 24L150 24L150 30L144 30L144 24ZM150 24L156 24L156 30L150 30L150 24ZM156 24L162 24L162 30L156 30L156 24ZM168 24L174 24L174 30L168 30L168 24ZM0 30L6 30L6 36L0 36L0 30ZM36 30L42 30L42 36L36 36L36 30ZM54 30L60 30L60 36L54 36L54 30ZM72 30L78 30L78 36L72 36L72 30ZM78 30L84 30L84 36L78 36L78 30ZM102 30L108 30L108 36L102 36L102 30ZM108 30L114 30L114 36L108 36L108 30ZM114 30L120 30L120 36L114 36L114 30ZM120 30L126 30L126 36L120 36L120 30ZM132 30L138 30L138 36L132 36L132 30ZM168 30L174 30L174 36L168 36L168 30ZM0 36L6 36L6 42L0 42L0 36ZM6 36L12 36L12 42L6 42L6 36ZM12 36L18 36L18 42L12 42L12 36ZM18 36L24 36L24 42L18 42L18 36ZM24 36L30 36L30 42L24 42L24 36ZM30 36L36 36L36 42L30 42L30 36ZM36 36L42 36L42 42L36 42L36 36ZM48 36L54 36L54 42L48 42L48 36ZM60 36L66 36L66 42L60 42L60 36ZM72 36L78 36L78 42L72 42L72 36ZM84 36L90 36L90 42L84 42L84 36ZM96 36L102 36L102 42L96 42L96 36ZM108 36L114 36L114 42L108 42L108 36ZM120 36L126 36L126 42L120 42L120 36ZM132 36L138 36L138 42L132 42L132 36ZM138 36L144 36L144 42L138 42L138 36ZM144 36L150 36L150 42L144 42L144 36ZM150 36L156 36L156 42L150 42L150 36ZM156 36L162 36L162 42L156 42L156 36ZM162 36L168 36L168 42L162 42L162 36ZM168 36L174 36L174 42L168 42L168 36ZM54 42L60 42L60 48L54 48L54 42ZM66 42L72 42L72 48L66 48L66 42ZM90 42L96 42L96 48L90 48L90 42ZM96 42L102 42L102 48L96 48L96 42ZM102 42L108 42L108 48L102 48L102 42ZM108 42L114 42L114 48L108 48L108 42ZM114 42L120 42L120 48L114 48L114 42ZM120 42L126 42L126 48L120 48L120 42ZM0 48L6 48L6 54L0 54L0 48ZM6 48L12 48L12 54L6 54L6 48ZM12 48L18 48L18 54L12 54L12 48ZM18 48L24 48L24 54L18 54L18 48ZM36 48L42 48L42 54L36 54L36 48ZM48 48L54 48L54 54L48 54L48 48ZM78 48L84 48L84 54L78 54L78 48ZM84 48L90 48L90 54L84 54L84 48ZM102 48L108 48L108 54L102 54L102 48ZM108 48L114 48L114 54L108 54L108 48ZM114 48L120 48L120 54L114 54L114 48ZM126 48L132 48L132 54L126 54L126 48ZM144 48L150 48L150 54L144 54L144 48ZM150 48L156 48L156 54L150 54L150 48ZM156 48L162 48L162 54L156 54L156 48ZM168 48L174 48L174 54L168 54L168 48ZM12 54L18 54L18 60L12 60L12 54ZM24 54L30 54L30 60L24 60L24 54ZM30 54L36 54L36 60L30 60L30 54ZM42 54L48 54L48 60L42 60L42 54ZM54 54L60 54L60 60L54 60L54 54ZM84 54L90 54L90 60L84 60L84 54ZM96 54L102 54L102 60L96 60L96 54ZM114 54L120 54L120 60L114 60L114 54ZM120 54L126 54L126 60L120 60L120 54ZM132 54L138 54L138 60L132 60L132 54ZM138 54L144 54L144 60L138 60L138 54ZM144 54L150 54L150 60L144 60L144 54ZM168 54L174 54L174 60L168 60L168 54ZM0 60L6 60L6 66L0 66L0 60ZM6 60L12 60L12 66L6 66L6 60ZM12 60L18 60L18 66L12 66L12 60ZM18 60L24 60L24 66L18 66L18 60ZM24 60L30 60L30 66L24 66L24 60ZM36 60L42 60L42 66L36 66L36 60ZM48 60L54 60L54 66L48 66L48 60ZM78 60L84 60L84 66L78 66L78 60ZM96 60L102 60L102 66L96 66L96 60ZM108 60L114 60L114 66L108 66L108 60ZM120 60L126 60L126 66L120 66L120 60ZM132 60L138 60L138 66L132 66L132 60ZM138 60L144 60L144 66L138 66L138 60ZM144 60L150 60L150 66L144 66L144 60ZM156 60L162 60L162 66L156 66L156 60ZM162 60L168 60L168 66L162 66L162 60ZM6 66L12 66L12 72L6 72L6 66ZM18 66L24 66L24 72L18 72L18 66ZM24 66L30 66L30 72L24 72L24 66ZM42 66L48 66L48 72L42 72L42 66ZM66 66L72 66L72 72L66 72L66 66ZM72 66L78 66L78 72L72 72L72 66ZM78 66L84 66L84 72L78 72L78 66ZM84 66L90 66L90 72L84 72L84 66ZM96 66L102 66L102 72L96 72L96 66ZM108 66L114 66L114 72L108 72L108 66ZM120 66L126 66L126 72L120 72L120 66ZM126 66L132 66L132 72L126 72L126 66ZM132 66L138 66L138 72L132 72L132 66ZM138 66L144 66L144 72L138 72L138 66ZM144 66L150 66L150 72L144 72L144 66ZM168 66L174 66L174 72L168 72L168 66ZM6 72L12 72L12 78L6 78L6 72ZM12 72L18 72L18 78L12 78L12 72ZM18 72L24 72L24 78L18 78L18 72ZM30 72L36 72L36 78L30 78L30 72ZM36 72L42 72L42 78L36 78L36 72ZM54 72L60 72L60 78L54 78L54 72ZM66 72L72 72L72 78L66 78L66 72ZM78 72L84 72L84 78L78 78L78 72ZM84 72L90 72L90 78L84 78L84 72ZM90 72L96 72L96 78L90 78L90 72ZM96 72L102 72L102 78L96 78L96 72ZM102 72L108 72L108 78L102 78L102 72ZM114 72L120 72L120 78L114 78L114 72ZM150 72L156 72L156 78L150 78L150 72ZM156 72L162 72L162 78L156 78L156 72ZM0 78L6 78L6 84L0 84L0 78ZM6 78L12 78L12 84L6 84L6 78ZM18 78L24 78L24 84L18 84L18 78ZM24 78L30 78L30 84L24 84L24 78ZM30 78L36 78L36 84L30 84L30 78ZM48 78L54 78L54 84L48 84L48 78ZM60 78L66 78L66 84L60 84L60 78ZM66 78L72 78L72 84L66 84L66 78ZM84 78L90 78L90 84L84 84L84 78ZM96 78L102 78L102 84L96 84L96 78ZM102 78L108 78L108 84L102 84L102 78ZM114 78L120 78L120 84L114 84L114 78ZM120 78L126 78L126 84L120 84L120 78ZM132 78L138 78L138 84L132 84L132 78ZM138 78L144 78L144 84L138 84L138 78ZM156 78L162 78L162 84L156 84L156 78ZM162 78L168 78L168 84L162 84L162 78ZM168 78L174 78L174 84L168 84L168 78ZM0 84L6 84L6 90L0 90L0 84ZM12 84L18 84L18 90L12 90L12 84ZM24 84L30 84L30 90L24 90L24 84ZM30 84L36 84L36 90L30 90L30 84ZM36 84L42 84L42 90L36 90L36 84ZM54 84L60 84L60 90L54 90L54 84ZM60 84L66 84L66 90L60 90L60 84ZM72 84L78 84L78 90L72 90L72 84ZM84 84L90 84L90 90L84 90L84 84ZM96 84L102 84L102 90L96 90L96 84ZM114 84L120 84L120 90L114 90L114 84ZM120 84L126 84L126 90L120 90L120 84ZM126 84L132 84L132 90L126 90L126 84ZM138 84L144 84L144 90L138 90L138 84ZM144 84L150 84L150 90L144 90L144 84ZM156 84L162 84L162 90L156 90L156 84ZM162 84L168 84L168 90L162 90L162 84ZM168 84L174 84L174 90L168 90L168 84ZM0 90L6 90L6 96L0 96L0 90ZM6 90L12 90L12 96L6 96L6 90ZM18 90L24 90L24 96L18 96L18 90ZM24 90L30 90L30 96L24 96L24 90ZM48 90L54 90L54 96L48 96L48 90ZM72 90L78 90L78 96L72 96L72 90ZM84 90L90 90L90 96L84 96L84 90ZM90 90L96 90L96 96L90 96L90 90ZM96 90L102 90L102 96L96 96L96 90ZM120 90L126 90L126 96L120 96L120 90ZM132 90L138 90L138 96L132 96L132 90ZM138 90L144 90L144 96L138 96L138 90ZM144 90L150 90L150 96L144 96L144 90ZM162 90L168 90L168 96L162 96L162 90ZM0 96L6 96L6 102L0 102L0 96ZM12 96L18 96L18 102L12 102L12 96ZM18 96L24 96L24 102L18 102L18 96ZM24 96L30 96L30 102L24 102L24 96ZM36 96L42 96L42 102L36 102L36 96ZM60 96L66 96L66 102L60 102L60 96ZM66 96L72 96L72 102L66 102L66 96ZM108 96L114 96L114 102L108 102L108 96ZM120 96L126 96L126 102L120 102L120 96ZM126 96L132 96L132 102L126 102L126 96ZM144 96L150 96L150 102L144 102L144 96ZM150 96L156 96L156 102L150 102L150 96ZM162 96L168 96L168 102L162 102L162 96ZM6 102L12 102L12 108L6 108L6 102ZM12 102L18 102L18 108L12 108L12 102ZM24 102L30 102L30 108L24 108L24 102ZM42 102L48 102L48 108L42 108L42 102ZM48 102L54 102L54 108L48 108L48 102ZM54 102L60 102L60 108L54 108L54 102ZM72 102L78 102L78 108L72 108L72 102ZM84 102L90 102L90 108L84 108L84 102ZM90 102L96 102L96 108L90 108L90 102ZM108 102L114 102L114 108L108 108L108 102ZM120 102L126 102L126 108L120 108L120 102ZM126 102L132 102L132 108L126 108L126 102ZM138 102L144 102L144 108L138 108L138 102ZM150 102L156 102L156 108L150 108L150 102ZM156 102L162 102L162 108L156 108L156 102ZM162 102L168 102L168 108L162 108L162 102ZM0 108L6 108L6 114L0 114L0 108ZM18 108L24 108L24 114L18 114L18 108ZM36 108L42 108L42 114L36 114L36 108ZM48 108L54 108L54 114L48 114L48 108ZM54 108L60 108L60 114L54 114L54 108ZM60 108L66 108L66 114L60 114L60 108ZM66 108L72 108L72 114L66 114L66 108ZM72 108L78 108L78 114L72 114L72 108ZM90 108L96 108L96 114L90 114L90 108ZM96 108L102 108L102 114L96 114L96 108ZM138 108L144 108L144 114L138 114L138 108ZM156 108L162 108L162 114L156 114L156 108ZM12 114L18 114L18 120L12 120L12 114ZM18 114L24 114L24 120L18 120L18 114ZM24 114L30 114L30 120L24 120L24 114ZM30 114L36 114L36 120L30 120L30 114ZM72 114L78 114L78 120L72 120L72 114ZM84 114L90 114L90 120L84 120L84 114ZM96 114L102 114L102 120L96 120L96 114ZM102 114L108 114L108 120L102 120L102 114ZM114 114L120 114L120 120L114 120L114 114ZM120 114L126 114L126 120L120 120L120 114ZM126 114L132 114L132 120L126 120L126 114ZM156 114L162 114L162 120L156 120L156 114ZM6 120L12 120L12 126L6 126L6 120ZM18 120L24 120L24 126L18 126L18 120ZM36 120L42 120L42 126L36 126L36 120ZM42 120L48 120L48 126L42 126L42 120ZM48 120L54 120L54 126L48 126L48 120ZM54 120L60 120L60 126L54 126L54 120ZM60 120L66 120L66 126L60 126L60 120ZM66 120L72 120L72 126L66 126L66 120ZM72 120L78 120L78 126L72 126L72 120ZM84 120L90 120L90 126L84 126L84 120ZM90 120L96 120L96 126L90 126L90 120ZM102 120L108 120L108 126L102 126L102 120ZM108 120L114 120L114 126L108 126L108 120ZM114 120L120 120L120 126L114 126L114 120ZM120 120L126 120L126 126L120 126L120 120ZM126 120L132 120L132 126L126 126L126 120ZM132 120L138 120L138 126L132 126L132 120ZM138 120L144 120L144 126L138 126L138 120ZM144 120L150 120L150 126L144 126L144 120ZM150 120L156 120L156 126L150 126L150 120ZM156 120L162 120L162 126L156 126L156 120ZM48 126L54 126L54 132L48 132L48 126ZM54 126L60 126L60 132L54 132L54 126ZM60 126L66 126L66 132L60 132L60 126ZM72 126L78 126L78 132L72 132L72 126ZM108 126L114 126L114 132L108 132L108 126ZM120 126L126 126L126 132L120 132L120 126ZM144 126L150 126L150 132L144 132L144 126ZM150 126L156 126L156 132L150 132L150 126ZM156 126L162 126L162 132L156 132L156 126ZM162 126L168 126L168 132L162 132L162 126ZM168 126L174 126L174 132L168 132L168 126ZM0 132L6 132L6 138L0 138L0 132ZM6 132L12 132L12 138L6 138L6 132ZM12 132L18 132L18 138L12 138L12 132ZM18 132L24 132L24 138L18 138L18 132ZM24 132L30 132L30 138L24 138L24 132ZM30 132L36 132L36 138L30 138L30 132ZM36 132L42 132L42 138L36 138L36 132ZM54 132L60 132L60 138L54 138L54 132ZM60 132L66 132L66 138L60 138L60 132ZM66 132L72 132L72 138L66 138L66 132ZM72 132L78 132L78 138L72 138L72 132ZM78 132L84 132L84 138L78 138L78 132ZM84 132L90 132L90 138L84 138L84 132ZM114 132L120 132L120 138L114 138L114 132ZM120 132L126 132L126 138L120 138L120 132ZM132 132L138 132L138 138L132 138L132 132ZM144 132L150 132L150 138L144 138L144 132ZM150 132L156 132L156 138L150 138L150 132ZM162 132L168 132L168 138L162 138L162 132ZM0 138L6 138L6 144L0 144L0 138ZM36 138L42 138L42 144L36 144L36 138ZM54 138L60 138L60 144L54 144L54 138ZM78 138L84 138L84 144L78 144L78 138ZM84 138L90 138L90 144L84 144L84 138ZM90 138L96 138L96 144L90 144L90 138ZM108 138L114 138L114 144L108 144L108 138ZM120 138L126 138L126 144L120 144L120 138ZM144 138L150 138L150 144L144 144L144 138ZM150 138L156 138L156 144L150 144L150 138ZM162 138L168 138L168 144L162 144L162 138ZM0 144L6 144L6 150L0 150L0 144ZM12 144L18 144L18 150L12 150L12 144ZM18 144L24 144L24 150L18 150L18 144ZM24 144L30 144L30 150L24 150L24 144ZM36 144L42 144L42 150L36 150L36 144ZM60 144L66 144L66 150L60 150L60 144ZM72 144L78 144L78 150L72 150L72 144ZM84 144L90 144L90 150L84 150L84 144ZM90 144L96 144L96 150L90 150L90 144ZM96 144L102 144L102 150L96 150L96 144ZM102 144L108 144L108 150L102 150L102 144ZM120 144L126 144L126 150L120 150L120 144ZM126 144L132 144L132 150L126 150L126 144ZM132 144L138 144L138 150L132 150L132 144ZM138 144L144 144L144 150L138 150L138 144ZM144 144L150 144L150 150L144 150L144 144ZM156 144L162 144L162 150L156 150L156 144ZM162 144L168 144L168 150L162 150L162 144ZM168 144L174 144L174 150L168 150L168 144ZM0 150L6 150L6 156L0 156L0 150ZM12 150L18 150L18 156L12 156L12 150ZM18 150L24 150L24 156L18 156L18 150ZM24 150L30 150L30 156L24 156L24 150ZM36 150L42 150L42 156L36 156L36 150ZM48 150L54 150L54 156L48 156L48 150ZM66 150L72 150L72 156L66 156L66 150ZM72 150L78 150L78 156L72 156L72 150ZM90 150L96 150L96 156L90 156L90 150ZM96 150L102 150L102 156L96 156L96 150ZM114 150L120 150L120 156L114 156L114 150ZM120 150L126 150L126 156L120 156L120 150ZM126 150L132 150L132 156L126 156L126 150ZM144 150L150 150L150 156L144 156L144 150ZM150 150L156 150L156 156L150 156L150 150ZM168 150L174 150L174 156L168 156L168 150ZM0 156L6 156L6 162L0 162L0 156ZM12 156L18 156L18 162L12 162L12 156ZM18 156L24 156L24 162L18 162L18 156ZM24 156L30 156L30 162L24 162L24 156ZM36 156L42 156L42 162L36 162L36 156ZM48 156L54 156L54 162L48 162L48 156ZM60 156L66 156L66 162L60 162L60 156ZM66 156L72 156L72 162L66 162L66 156ZM78 156L84 156L84 162L78 162L78 156ZM126 156L132 156L132 162L126 162L126 156ZM138 156L144 156L144 162L138 162L138 156ZM156 156L162 156L162 162L156 162L156 156ZM168 156L174 156L174 162L168 162L168 156ZM0 162L6 162L6 168L0 168L0 162ZM36 162L42 162L42 168L36 168L36 162ZM48 162L54 162L54 168L48 168L48 162ZM66 162L72 162L72 168L66 168L66 162ZM84 162L90 162L90 168L84 168L84 162ZM96 162L102 162L102 168L96 168L96 162ZM108 162L114 162L114 168L108 168L108 162ZM114 162L120 162L120 168L114 168L114 162ZM120 162L126 162L126 168L120 168L120 162ZM138 162L144 162L144 168L138 168L138 162ZM150 162L156 162L156 168L150 168L150 162ZM162 162L168 162L168 168L162 168L162 162ZM0 168L6 168L6 174L0 174L0 168ZM6 168L12 168L12 174L6 174L6 168ZM12 168L18 168L18 174L12 174L12 168ZM18 168L24 168L24 174L18 174L18 168ZM24 168L30 168L30 174L24 174L24 168ZM30 168L36 168L36 174L30 174L30 168ZM36 168L42 168L42 174L36 174L36 168ZM48 168L54 168L54 174L48 174L48 168ZM84 168L90 168L90 174L84 174L84 168ZM90 168L96 168L96 174L90 174L90 168ZM96 168L102 168L102 174L96 174L96 168ZM114 168L120 168L120 174L114 174L114 168ZM162 168L168 168L168 174L162 174L162 168ZM120 168L126 168L126 174L120 174L120 168ZM150 168L156 168L156 174L150 174L150 168Z" />
</svg>